<svg xmlns="http://www.w3.org/2000/svg" xmlns:xlink="http://www.w3.org/1999/xlink" version="1.1" x="0px" y="0px" viewBox="0 0 100 125" enable-background="new 0 0 100 100" xml:space="preserve"><g><path d="M84.993,80.411L62.702,58.12c3.874-4.918,5.822-10.858,5.822-16.803c0-6.955-2.659-13.914-7.966-19.22   c-5.305-5.305-12.26-7.966-19.213-7.966c-6.964-0.001-13.935,2.651-19.249,7.966c-5.31,5.309-7.966,12.272-7.966,19.231   c0,6.958,2.656,13.921,7.966,19.231c5.306,5.307,12.265,7.966,19.221,7.966c5.868,0,11.73-1.904,16.612-5.68l0.19-0.143   l0.825,0.825l21.466,21.466c0.583,0.583,1.352,0.877,2.116,0.876c0.765,0.001,1.534-0.293,2.117-0.877l0.348-0.348   c0.584-0.583,0.878-1.353,0.877-2.117C85.87,81.763,85.576,80.994,84.993,80.411z M56.985,56.985   c-4.322,4.323-9.992,6.487-15.658,6.486c-5.666,0.001-11.335-2.163-15.658-6.486c-4.323-4.322-6.486-9.992-6.486-15.658   c0-5.666,2.163-11.335,6.486-15.658c4.323-4.323,9.993-6.486,15.658-6.486c5.666,0,11.335,2.163,15.658,6.486   c4.323,4.323,6.487,9.993,6.486,15.658C63.473,46.993,61.309,52.663,56.985,56.985z"/></g><text x="0" y="115" fill="#000000" font-size="5px" font-weight="bold" font-family="'Helvetica Neue', Helvetica, Arial-Unicode, Arial, Sans-serif">Created by StudioPAF</text><text x="0" y="120" fill="#000000" font-size="5px" font-weight="bold" font-family="'Helvetica Neue', Helvetica, Arial-Unicode, Arial, Sans-serif">from the Noun Project</text></svg>