<svg xmlns="http://www.w3.org/2000/svg" xmlns:xlink="http://www.w3.org/1999/xlink" version="1.1" x="0px" y="0px" viewBox="0 0 34 42.5" enable-background="new 0 0 34 34" xml:space="preserve"><path d="M24.5,21c-1.716,0-3.262,0.728-4.357,1.887l-5.171-3.437c0.67-1.482,0.719-3.181,0.054-4.775  c-0.018-0.043-0.043-0.08-0.062-0.123l5.17-3.444C21.269,12.314,22.829,13,24.5,13c3.309,0,6-2.691,6-6s-2.691-6-6-6  c-3.309,0-6,2.691-6,6c0,0.854,0.196,1.672,0.538,2.436l-5.176,3.448C12.76,11.698,11.219,11,9.5,11c-3.308,0-6,2.691-6,6  s2.691,6,6,6c1.596,0,3.103-0.621,4.251-1.757c0.04-0.041,0.071-0.087,0.11-0.129l5.167,3.434C18.692,25.298,18.5,26.126,18.5,27  c0,3.309,2.691,6,6,6c3.309,0,6-2.691,6-6S27.808,21,24.5,21z M24.5,3c2.206,0,4,1.794,4,4c0,2.205-1.794,4-4,4  c-1.236,0-2.386-0.561-3.15-1.533C20.793,8.751,20.5,7.898,20.5,7C20.5,4.794,22.293,3,24.5,3z M9.5,21c-2.206,0-4-1.795-4-4  c0-2.206,1.794-4,4-4C14.713,13,14.852,21,9.5,21z M24.5,31c-2.206,0-4-1.795-4-4c0-2.206,1.794-4,4-4c2.206,0,4,1.794,4,4  C28.5,29.205,26.706,31,24.5,31z"/><text x="0" y="49" fill="#000000" font-size="5px" font-weight="bold" font-family="'Helvetica Neue', Helvetica, Arial-Unicode, Arial, Sans-serif">Created by ProSymbols</text><text x="0" y="54" fill="#000000" font-size="5px" font-weight="bold" font-family="'Helvetica Neue', Helvetica, Arial-Unicode, Arial, Sans-serif">from the Noun Project</text></svg>