<svg xmlns="http://www.w3.org/2000/svg" xmlns:xlink="http://www.w3.org/1999/xlink" viewBox="0 0 27 28.75" version="1.1" x="0px" y="0px"><title>icon-favorites-disabled@1x</title><desc>Created with Sketch.</desc><g stroke="none" stroke-width="1" fill="none" fill-rule="evenodd"><g transform="translate(-19.000000, -15.000000)" fill="#000000"><g><g transform="translate(19.000000, 15.000000)"><path d="M21.0716714,13.809 C19.1486714,15.966 16.2546714,18.334 13.9736714,19.901 C13.6506714,20.122 13.2276714,20.13 12.8966714,19.921 C10.5526714,18.446 7.5666714,16.195 5.5626714,14.118 C3.8506714,12.342 1.5886714,9.654 1.7046714,6.813 C1.8016714,4.394 3.6776714,1.946 7.0736714,1.946 C7.1396714,1.946 7.2046714,1.947 7.2706714,1.949 C9.8136714,2.02 11.7136714,4.589 11.7276714,4.609 L12.3106714,5.425 C12.7246714,6.004 13.5916714,5.987 13.9826714,5.392 L14.5326714,4.553 C14.5506714,4.527 16.3476714,1.888 18.8796714,1.716 C19.0346714,1.706 19.1886714,1.701 19.3396714,1.701 C22.5706714,1.701 24.4486714,4.043 24.6356714,6.357 C24.8636714,9.192 22.7106714,11.968 21.0716714,13.809 M26.3306714,6.22 C26.0626714,2.907 23.3416714,0 19.3396714,0 C19.1506714,0 18.9586714,0.007 18.7636714,0.021 C15.9766714,0.209 13.9986714,2.45 13.3456714,3.298 C13.2226714,3.457 12.9926714,3.462 12.8636714,3.307 C12.1766714,2.486 10.1126714,0.328 7.3186714,0.248 C7.2366714,0.246 7.1546714,0.246 7.0736714,0.246 C2.8886714,0.246 0.143671397,3.33 0.00567139733,6.745 C-0.134328603,10.181 2.3456714,13.231 4.3386714,15.297 C6.9896714,18.045 10.9376714,20.816 13.3226714,22.158 C13.4236714,22.214 13.5366714,22.212 13.6356714,22.151 C15.9676714,20.716 19.8006714,17.79 22.3416714,14.94 C24.2496714,12.795 26.6056714,9.651 26.3306714,6.22"/></g></g></g></g><text x="0" y="38" fill="#000000" font-size="5px" font-weight="bold" font-family="'Helvetica Neue', Helvetica, Arial-Unicode, Arial, Sans-serif">Created by andrewcaliber</text><text x="0" y="43" fill="#000000" font-size="5px" font-weight="bold" font-family="'Helvetica Neue', Helvetica, Arial-Unicode, Arial, Sans-serif">from the Noun Project</text></svg>